<svg width="20" height="18" viewBox="0 0 20 18" fill="none" xmlns="http://www.w3.org/2000/svg">
<path d="M17.3666 2.46526C16.941 2.03293 16.4356 1.68997 15.8794 1.45598C15.3232 1.222 14.727 1.10156 14.1249 1.10156C13.5229 1.10156 12.9267 1.222 12.3705 1.45598C11.8143 1.68997 11.3089 2.03293 10.8833 2.46526L9.99994 3.36207L9.1166 2.46526C8.25686 1.59239 7.0908 1.10201 5.87494 1.10201C4.65908 1.10201 3.49301 1.59239 2.63327 2.46526C1.77353 3.33812 1.29053 4.52199 1.29053 5.75641C1.29053 6.99083 1.77353 8.1747 2.63327 9.04757L3.5166 9.94438L9.99994 16.5267L16.4833 9.94438L17.3666 9.04757C17.7924 8.61544 18.1302 8.10237 18.3607 7.53766C18.5912 6.97295 18.7098 6.36768 18.7098 5.75641C18.7098 5.14515 18.5912 4.53987 18.3607 3.97516C18.1302 3.41046 17.7924 2.89738 17.3666 2.46526V2.46526Z" stroke="#A3B3DB" stroke-width="2" stroke-linecap="round" stroke-linejoin="round"/>
</svg>
