<?xml version="1.0"?>
<svg xmlns="http://www.w3.org/2000/svg" xmlns:xlink="http://www.w3.org/1999/xlink" width="138" height="138" viewBox="0 0 138 138">
  <defs>
    <filter id="Ellipse_48" x="0" y="0" width="138" height="138" filterUnits="userSpaceOnUse">
      <feOffset dy="3" input="SourceAlpha"/>
      <feGaussianBlur stdDeviation="3" result="blur"/>
      <feFlood flood-opacity="0.161"/>
      <feComposite operator="in" in2="blur"/>
      <feComposite in="SourceGraphic"/>
    </filter>
  </defs>
  <g id="Group_631" data-name="Group 631" transform="translate(-1462 -1932)">
    <g transform="matrix(1, 0, 0, 1, 1462, 1932)" filter="url(#Ellipse_48)">
      <circle id="Ellipse_48-2" data-name="Ellipse 48" cx="60" cy="60" r="60" transform="translate(9 6)" fill="#febe15"/>
    </g>
    <g id="folded-newspaper_1_" data-name="folded-newspaper (1)" transform="translate(1506 1975)">
      <g id="Group_619" data-name="Group 619" transform="translate(0 3)">
        <path id="Path_2115" data-name="Path 2115" d="M43.21,9.173V3H0V36.951s0,6.173,6.173,6.173h38.58s4.63-.1,4.63-6.173V9.173ZM6.173,40.037a3.023,3.023,0,0,1-3.086-3.086V6.086H40.124V36.951a4.463,4.463,0,0,0,1.043,3.086Z" transform="translate(0 -3)" fill="none" stroke="#fff" stroke-width="1.5"/>
        <rect id="Rectangle_1565" data-name="Rectangle 1565" width="13.889" height="15.432" transform="translate(6.173 15.432)" fill="none" stroke="#fff" stroke-width="1.5"/>
        <g id="Group_632" data-name="Group 632" transform="translate(5.618 5.835)">
          <line id="Line_27" data-name="Line 27" x2="13.198" transform="translate(17.882 9.583)" fill="none" stroke="#fff" stroke-miterlimit="10" stroke-width="2"/>
          <line id="Line_28" data-name="Line 28" x2="31.079" transform="translate(0 3)" fill="none" stroke="#fff" stroke-miterlimit="10" stroke-width="2"/>
          <line id="Line_34" data-name="Line 34" x2="13.198" transform="translate(17.882 24.583)" fill="none" stroke="#fff" stroke-miterlimit="10" stroke-width="2"/>
          <line id="Line_35" data-name="Line 35" x2="13.198" transform="translate(17.882 16.583)" fill="none" stroke="#fff" stroke-miterlimit="10" stroke-width="2"/>
        </g>
      </g>
    </g>
  </g>
</svg>
