<?xml version="1.0" standalone="no"?>
<!DOCTYPE svg PUBLIC "-//W3C//DTD SVG 20010904//EN"
 "http://www.w3.org/TR/2001/REC-SVG-20010904/DTD/svg10.dtd">
<svg version="1.0" xmlns="http://www.w3.org/2000/svg"
 width="300.000000pt" height="300.000000pt" viewBox="0 0 300.000000 300.000000"
 preserveAspectRatio="xMidYMid meet">
<metadata>
Created by potrace 1.14, written by Peter Selinger 2001-2017
</metadata>
<g transform="translate(0.000000,300.000000) scale(0.100000,-0.100000)"
fill="#000000" stroke="none">
<path d="M110 2890 c-43 -10 -85 -56 -99 -107 -8 -26 -10 -413 -8 -1233 2
-1368 -6 -1247 96 -1351 41 -41 72 -62 114 -78 l58 -21 1312 0 1312 1 -42 21
c-59 28 -121 93 -152 158 l-26 55 -5 1232 c-5 1224 -5 1232 -26 1259 -11 15
-33 37 -48 48 -27 21 -32 21 -1239 23 -667 0 -1228 -3 -1247 -7z m1952 -557
c75 -43 138 -83 138 -89 0 -17 -268 -167 -285 -160 -12 4 -15 34 -15 159 0
140 3 167 18 167 3 0 68 -35 144 -77z m-1002 -93 l0 -160 -355 0 -355 0 0 160
0 160 355 0 355 0 0 -160z m900 -505 l0 -135 -805 0 -805 0 0 135 0 135 805 0
805 0 0 -135z m0 -895 l0 -410 -805 0 -805 0 0 410 0 410 805 0 805 0 0 -410z"/>
</g>
</svg>
